<svg xmlns="http://www.w3.org/2000/svg" viewBox="0 0 1024 1024">
  <path d="M413.85 280.55 L720.46 357 L625.9 736.28 L426.72 882.03 L319.29 659.83 Z" fill="#B0A488"/>
  <path d="M459.42 238.32 L700.05 298.32 C722.56 303.93 736.26 326.72 730.65 349.23 L728.47 357.96 C722.86 380.47 700.06 394.16 677.56 388.55 L436.92 328.56 C414.42 322.94 400.72 300.15 406.33 277.64 L408.51 268.91 C414.12 246.4 436.91 232.71 459.42 238.32 Z" fill="#B0A488"/>
  <path d="M558.88 265.18 C548.99 304.83 508.83 328.96 469.17 319.08 C429.52 309.19 405.39 269.03 415.27 229.37 C425.16 189.72 465.32 165.59 504.98 175.47 C544.63 185.36 568.77 225.52 558.88 265.18 Z" fill="#B0A488"/>
  <path d="M670.45 268.26 C658.69 315.42 610.93 344.11 563.77 332.36 C516.61 320.6 487.92 272.84 499.67 225.68 C511.43 178.52 559.19 149.83 606.35 161.58 C653.51 173.34 682.2 221.1 670.45 268.26 Z" fill="#B0A488"/>
  <path d="M738.87 312.12 C729.52 349.63 691.53 372.45 654.01 363.1 C616.5 353.75 593.68 315.76 603.03 278.25 C612.38 240.73 650.37 217.91 687.88 227.26 C725.39 236.61 748.22 274.6 738.87 312.12 Z" fill="#B0A488"/>
  <path d="M419.68 290.25 L710.77 362.82 L618.84 731.54 L327.75 658.96 Z" fill="#F5C400"/>
  <path d="M455.36 333.15 L465.06 335.57 L381.11 672.26 L371.41 669.85 Z" fill="#D9AD00"/>
  <path d="M649.42 381.54 L659.12 383.96 L575.17 720.65 L565.47 718.23 Z" fill="#D9AD00"/>
  <path d="M327.75 658.96 L618.84 731.54 L429.75 869.9 Z" fill="#E8C9A0"/>
  <path d="M391.21 790.21 L501.18 817.63 L429.75 869.9 Z" fill="#3A3A3A"/>
  <path d="M457.49 246.08 L698.12 306.08 C716.34 310.62 727.43 329.07 722.88 347.29 L720.71 356.03 C716.16 374.25 697.71 385.33 679.49 380.79 L438.86 320.79 C420.64 316.25 409.55 297.8 414.09 279.58 L416.27 270.85 C420.81 252.63 439.27 241.54 457.49 246.08 Z" fill="#FFFFFF"/>
  <path d="M551.12 263.24 C542.3 298.61 506.48 320.13 471.11 311.31 C435.74 302.5 414.22 266.68 423.04 231.31 C431.85 195.94 467.67 174.42 503.04 183.24 C538.41 192.05 559.93 227.87 551.12 263.24 Z" fill="#FFFFFF"/>
  <path d="M662.68 266.32 C652 309.19 608.58 335.28 565.71 324.59 C522.84 313.91 496.75 270.49 507.44 227.62 C518.13 184.75 561.54 158.66 604.41 169.35 C647.28 180.04 673.37 223.45 662.68 266.32 Z" fill="#FFFFFF"/>
  <path d="M731.11 310.18 C722.82 343.4 689.17 363.62 655.95 355.34 C622.72 347.06 602.51 313.41 610.79 280.18 C619.07 246.96 652.72 226.74 685.95 235.02 C719.17 243.31 739.39 276.96 731.11 310.18 Z" fill="#FFFFFF"/>
  <path d="M507.57 446.14 C504.5 458.47 492.02 465.97 479.69 462.89 C467.37 459.82 459.87 447.34 462.94 435.01 C466.01 422.69 478.5 415.19 490.82 418.26 C503.15 421.33 510.65 433.82 507.57 446.14 Z" fill="#1A1A1A"/>
  <path d="M620.13 474.2 C617.06 486.53 604.57 494.03 592.25 490.96 C579.92 487.88 572.42 475.4 575.5 463.08 C578.57 450.75 591.05 443.25 603.38 446.32 C615.7 449.4 623.2 461.88 620.13 474.2 Z" fill="#1A1A1A"/>
  <path d="M488.8 433.16 C487.59 437.99 482.71 440.92 477.89 439.72 C473.06 438.52 470.13 433.63 471.33 428.81 C472.53 423.99 477.42 421.05 482.24 422.25 C487.06 423.46 490 428.34 488.8 433.16 Z" fill="#FFFFFF"/>
  <path d="M601.35 461.23 C600.15 466.05 595.26 468.98 590.44 467.78 C585.62 466.58 582.68 461.69 583.89 456.87 C585.09 452.05 589.97 449.11 594.8 450.32 C599.62 451.52 602.55 456.4 601.35 461.23 Z" fill="#FFFFFF"/>
  <path d="M491.68 515.99 L495.67 519.38 L499.78 522.45 L504.02 525.19 L508.36 527.59 L512.83 529.65 L517.39 531.36 L522.06 532.72 L526.82 533.71 L531.65 534.35 L536.56 534.62 L541.53 534.54 L546.55 534.11 L551.62 533.33 L556.74 532.21 L559.72 530.7 L561.74 528.05 L562.42 524.78 L561.61 521.54 L559.47 518.97 L556.43 517.59 L553.1 517.66 L548.87 518.59 L544.76 519.22 L540.75 519.56 L536.85 519.63 L533.05 519.41 L529.33 518.92 L525.69 518.16 L522.12 517.13 L518.61 515.81 L515.15 514.21 L511.73 512.33 L508.36 510.14 L505.02 507.65 L501.73 504.85 L498.81 503.22 L495.48 503.02 L492.39 504.28 L490.16 506.76 L489.22 509.96 L489.76 513.26 Z" fill="#1A1A1A"/>
</svg>
