<svg xmlns="http://www.w3.org/2000/svg" viewBox="0 0 1024 1024">
  <path d="M257 330 L767 330 L767 615 L257 615 Z M463 448 C463 473.41 442.41 494 417 494 C391.59 494 371 473.41 371 448 C371 422.59 391.59 402 417 402 C442.41 402 463 422.59 463 448 Z M653 448 C653 473.41 632.41 494 607 494 C581.59 494 561 473.41 561 448 C561 422.59 581.59 402 607 402 C632.41 402 653 422.59 653 448 Z M436 538 C436 562.3 470.03 582 512 582 C553.97 582 588 562.3 588 538 Z" fill="#FFFFFF" fill-rule="evenodd"/>
  <path d="M257 615 L767 615 L512 795 Z" fill="#FFFFFF"/>
  <path d="M251 225 L773 225 C791.78 225 807 240.22 807 259 L807 311 C807 329.78 791.78 345 773 345 L251 345 C232.22 345 217 329.78 217 311 L217 259 C217 240.22 232.22 225 251 225 Z" fill="#FFFFFF"/>
  <path d="M432 233 C432 290.99 384.99 338 327 338 C269.01 338 222 290.99 222 233 C222 175.01 269.01 128 327 128 C384.99 128 432 175.01 432 233 Z" fill="#FFFFFF"/>
  <path d="M647 194 C647 268.56 586.56 329 512 329 C437.44 329 377 268.56 377 194 C377 119.44 437.44 59 512 59 C586.56 59 647 119.44 647 194 Z" fill="#FFFFFF"/>
  <path d="M792 236 C792 291.23 747.23 336 692 336 C636.77 336 592 291.23 592 236 C592 180.77 636.77 136 692 136 C747.23 136 792 180.77 792 236 Z" fill="#FFFFFF"/>
  <path d="M697 330 L697 330 C712.46 330 725 342.54 725 358 L725 442 C725 457.46 712.46 470 697 470 L697 470 C681.54 470 669 457.46 669 442 L669 358 C669 342.54 681.54 330 697 330 Z" fill="#FFFFFF"/>
</svg>
