<svg xmlns="http://www.w3.org/2000/svg" viewBox="0 0 1024 1024">
  <path d="M230 0 L794 0 C921.03 0 1024 102.97 1024 230 L1024 794 C1024 921.03 921.03 1024 794 1024 L230 1024 C102.97 1024 0 921.03 0 794 L0 230 C0 102.97 102.97 0 230 0 Z" fill="#FFFFFF"/>
  <path d="M427.59 312.95 L691.28 378.7 L609.95 704.88 L438.66 830.22 L346.27 639.14 Z" fill="#B0A488"/>
  <path d="M466.78 276.63 L673.73 328.23 C693.08 333.06 704.86 352.66 700.04 372.02 L698.16 379.53 C693.34 398.88 673.73 410.66 654.38 405.84 L447.43 354.24 C428.08 349.41 416.3 329.81 421.12 310.45 L423 302.94 C427.82 283.59 447.43 271.81 466.78 276.63 Z" fill="#B0A488"/>
  <path d="M552.32 299.73 C543.81 333.84 509.27 354.59 475.17 346.09 C441.07 337.58 420.31 303.04 428.82 268.94 C437.32 234.84 471.86 214.08 505.96 222.59 C540.06 231.09 560.82 265.63 552.32 299.73 Z" fill="#B0A488"/>
  <path d="M648.26 302.38 C638.15 342.94 597.08 367.62 556.52 357.51 C515.97 347.4 491.29 306.32 501.4 265.77 C511.51 225.21 552.59 200.53 593.14 210.64 C633.7 220.75 658.38 261.83 648.26 302.38 Z" fill="#B0A488"/>
  <path d="M707.11 340.1 C699.06 372.36 666.39 391.99 634.13 383.95 C601.87 375.9 582.24 343.23 590.28 310.97 C598.33 278.71 631 259.08 663.26 267.12 C695.52 275.17 715.15 307.84 707.11 340.1 Z" fill="#B0A488"/>
  <path d="M432.6 321.29 L682.94 383.71 L603.88 700.8 L353.54 638.38 Z" fill="#F5C400"/>
  <path d="M463.29 358.19 L471.63 360.27 L399.44 649.83 L391.09 647.75 Z" fill="#D9AD00"/>
  <path d="M630.18 399.8 L638.52 401.88 L566.33 691.44 L557.98 689.36 Z" fill="#D9AD00"/>
  <path d="M353.54 638.38 L603.88 700.8 L441.26 819.79 Z" fill="#E8C9A0"/>
  <path d="M408.12 751.26 L502.7 774.84 L441.26 819.79 Z" fill="#3A3A3A"/>
  <path d="M465.12 283.31 L672.06 334.91 C687.73 338.81 697.27 354.68 693.36 370.35 L691.49 377.86 C687.58 393.53 671.71 403.07 656.04 399.16 L449.1 347.56 C433.43 343.66 423.89 327.79 427.8 312.12 L429.67 304.61 C433.58 288.94 449.45 279.4 465.12 283.31 Z" fill="#FFFFFF"/>
  <path d="M545.64 298.07 C538.06 328.48 507.25 346.99 476.83 339.41 C446.42 331.83 427.91 301.02 435.49 270.61 C443.08 240.19 473.88 221.68 504.3 229.26 C534.71 236.85 553.22 267.65 545.64 298.07 Z" fill="#FFFFFF"/>
  <path d="M641.59 300.72 C632.4 337.59 595.06 360.02 558.19 350.83 C521.32 341.64 498.88 304.3 508.08 267.43 C517.27 230.56 554.61 208.13 591.48 217.32 C628.34 226.51 650.78 263.85 641.59 300.72 Z" fill="#FFFFFF"/>
  <path d="M700.43 338.43 C693.31 367.01 664.37 384.4 635.8 377.27 C607.22 370.15 589.84 341.21 596.96 312.64 C604.08 284.06 633.02 266.68 661.6 273.8 C690.17 280.92 707.56 309.86 700.43 338.43 Z" fill="#FFFFFF"/>
  <path d="M508.19 455.36 C505.55 465.96 494.82 472.41 484.22 469.77 C473.62 467.13 467.17 456.39 469.81 445.79 C472.45 435.19 483.19 428.74 493.79 431.38 C504.39 434.03 510.84 444.76 508.19 455.36 Z" fill="#1A1A1A"/>
  <path d="M604.99 479.5 C602.35 490.1 591.61 496.55 581.01 493.9 C570.41 491.26 563.96 480.53 566.61 469.93 C569.25 459.33 579.98 452.88 590.58 455.52 C601.18 458.16 607.63 468.9 604.99 479.5 Z" fill="#1A1A1A"/>
  <path d="M492.05 444.2 C491.01 448.35 486.81 450.87 482.66 449.84 C478.52 448.8 475.99 444.6 477.03 440.46 C478.06 436.31 482.26 433.78 486.41 434.82 C490.56 435.85 493.08 440.05 492.05 444.2 Z" fill="#FFFFFF"/>
  <path d="M588.84 468.33 C587.81 472.48 583.61 475.01 579.46 473.97 C575.31 472.94 572.79 468.74 573.82 464.59 C574.86 460.44 579.06 457.92 583.2 458.95 C587.35 459.99 589.88 464.19 588.84 468.33 Z" fill="#FFFFFF"/>
  <path d="M494.52 515.43 L497.96 518.35 L501.49 520.99 L505.13 523.34 L508.87 525.41 L512.71 527.18 L516.64 528.65 L520.65 529.82 L524.74 530.67 L528.9 531.22 L533.12 531.46 L537.39 531.39 L541.71 531.01 L546.08 530.34 L550.48 529.38 L553.04 528.08 L554.78 525.8 L555.36 522.99 L554.66 520.2 L552.82 518 L550.21 516.81 L547.34 516.87 L543.71 517.66 L540.17 518.21 L536.73 518.5 L533.37 518.56 L530.1 518.38 L526.9 517.96 L523.77 517.3 L520.7 516.41 L517.68 515.28 L514.71 513.9 L511.77 512.28 L508.87 510.4 L506 508.26 L503.17 505.85 L500.66 504.45 L497.79 504.28 L495.14 505.36 L493.21 507.49 L492.41 510.25 L492.87 513.08 Z" fill="#1A1A1A"/>
<path d="M635,1024L1024,1024L1024,635Z" fill="#007AFF"/><path d="M776.77 953.98L803.59 953.98C827.78 953.98 843.04 939.37 843.04 915.50C843.04 891.85 827.35 877.68 802.50 877.68L776.77 877.68ZM803.15 939.81L792.03 939.81L792.03 891.85L803.15 891.85C818.52 891.85 827.78 900.46 827.78 915.72C827.78 930.87 818.52 939.81 803.15 939.81ZM855.91 953.98L912.26 953.98L912.26 939.81L871.17 939.81L871.17 922.04L905.83 922.04L905.83 907.87L871.17 907.87L871.17 891.85L911.06 891.85L911.06 877.68L855.91 877.68ZM941.58 953.98L958.04 953.98L984.09 877.68L968.29 877.68L950.30 934.58L931.66 877.68L915.53 877.68Z" fill="#FFFFFF"/></svg>
