<svg width="1024" height="1024" viewBox="0 0 1024 1024" fill="none" xmlns="http://www.w3.org/2000/svg">
<path d="M129 808L316 480L374 580L243.117 808H129Z" fill="#FFFFFF"/>
<path d="M895.5 808L708.5 480L650.5 580L781.383 808H895.5Z" fill="#FFFFFF"/>
<rect x="523" y="618" width="185" height="20" transform="rotate(90 523 618)" fill="#FFFFFF"/>
<rect x="602" y="808" width="180" height="9.99998" transform="rotate(-180 602 808)" fill="#FFFFFF"/>
<path d="M636.5 348L512.66 134L389 348H636.5Z" fill="#FFFFFF"/>
<path d="M388.5 434L512.34 648L636 434L388.5 434Z" fill="#FFFFFF"/>
<path d="M635,1024L1024,1024L1024,635Z" fill="#AF52DE"/><path d="M679.00 953.98L694.80 953.98L700.69 936.54L728.38 936.54L734.37 953.98L750.50 953.98L722.60 877.68L707.01 877.68ZM705.16 923.13L714.42 895.77L723.80 923.13ZM758.35 953.98L785.17 953.98C809.36 953.98 824.62 939.37 824.62 915.50C824.62 891.85 808.93 877.68 784.08 877.68L758.35 877.68ZM784.73 939.81L773.61 939.81L773.61 891.85L784.73 891.85C800.10 891.85 809.36 900.46 809.36 915.72C809.36 930.87 800.10 939.81 784.73 939.81ZM837.49 953.98L852.75 953.98L852.75 922.70L885.34 922.70L885.34 953.98L900.60 953.98L900.60 877.68L885.34 877.68L885.34 908.53L852.75 908.53L852.75 877.68L837.49 877.68ZM950.30 955.29C972.32 955.29 987.47 938.94 987.47 915.61C987.47 892.18 972.43 876.37 950.63 876.37C928.50 876.37 913.35 892.50 913.35 915.61C913.35 939.48 928.28 955.29 950.30 955.29ZM950.41 941.66C937.11 941.66 928.61 931.53 928.61 915.83C928.61 900.13 937.11 890.00 950.41 890.00C963.71 890.00 972.21 900.13 972.21 915.83C972.21 931.53 963.71 941.66 950.41 941.66ZM1033.79 955.29C1051.78 955.29 1064.86 943.95 1068.57 926.19L1052.87 926.19C1050.04 936.32 1043.28 941.66 1033.79 941.66C1020.71 941.66 1012.32 931.53 1012.32 915.83C1012.32 900.13 1020.71 890.00 1033.79 890.00C1043.28 890.00 1050.04 894.90 1052.76 904.38L1068.57 904.38C1065.08 887.38 1051.89 876.37 1033.79 876.37C1011.99 876.37 997.06 892.50 997.06 915.61C997.06 939.70 1011.89 955.29 1033.79 955.29Z" fill="#FFFFFF"/></svg>
