<svg width="24" height="24" viewBox="0 0 24 24" fill="#000000" xmlns="http://www.w3.org/2000/svg">
  <path fill-rule="evenodd" clip-rule="evenodd" d="M6,2 h12 a2,2 0 0 1 2,2 v16 a2,2 0 0 1 -2,2 h-12 a2,2 0 0 1 -2,-2 v-16 a2,2 0 0 1 2,-2 z M7,5 h10 v3 h-10 z M7,12 a1,1 0 1,0 2,0 a1,1 0 1,0 -2,0 z M11,12 a1,1 0 1,0 2,0 a1,1 0 1,0 -2,0 z M15,12 a1,1 0 1,0 2,0 a1,1 0 1,0 -2,0 z M7,15 a1,1 0 1,0 2,0 a1,1 0 1,0 -2,0 z M11,15 a1,1 0 1,0 2,0 a1,1 0 1,0 -2,0 z M15,15 a1,1 0 1,0 2,0 a1,1 0 1,0 -2,0 z M7,18 a1,1 0 1,0 2,0 a1,1 0 1,0 -2,0 z M11,18 a1,1 0 1,0 2,0 a1,1 0 1,0 -2,0 z M15,18 a1,1 0 1,0 2,0 a1,1 0 1,0 -2,0 z" />
</svg>
