<svg xmlns="http://www.w3.org/2000/svg" viewBox="0 0 24 24"><path d="M12 3a6.5 6.5 0 0 1 3.8 11.8c-.5.4-.8 1-.8 1.6v.1H9v-.1c0-.6-.3-1.2-.8-1.6A6.5 6.5 0 0 1 12 3z"/><path d="M9 18h6v.8a1 1 0 0 1-1 1h-.6a1.6 1.6 0 0 1-2.8 0H10a1 1 0 0 1-1-1z"/><path d="M12 .5a1 1 0 0 1 1 1V3a1 1 0 0 1-2 0V1.5a1 1 0 0 1 1-1z"/><path d="M1.8 11h1.6a1 1 0 1 1 0 2H1.8a1 1 0 1 1 0-2z"/><path d="M20.6 11h1.6a1 1 0 1 1 0 2h-1.6a1 1 0 1 1 0-2z"/><path d="M4.6 3.7 5.8 4.9a1 1 0 0 1-1.4 1.4L3.2 5.1a1 1 0 0 1 1.4-1.4z"/><path d="M19.4 3.7a1 1 0 0 1 0 1.4l-1.2 1.2a1 1 0 0 1-1.4-1.4l1.2-1.2a1 1 0 0 1 1.4 0z"/></svg>
