<svg xmlns="http://www.w3.org/2000/svg" viewBox="0 0 240 240" fill="none">
  <rect width="240" height="240" rx="32" fill="#EAF3F4"/>
  <!-- background gears -->
  <g fill="#D3DEDE">
    <path d="M196 40l5-9 8 5-3 10 7 6-5 9-9-2-3 9-10-1-1-9-9-3 2-10-7-6 6-8z"/>
    <circle cx="196" cy="44" r="9" fill="#EAF3F4"/>
    <path d="M40 188l4-7 7 4-2 8 6 5-4 7-8-2-2 7-8-1-1-7-7-3 2-8-6-5z"/>
    <circle cx="40" cy="191" r="7" fill="#EAF3F4"/>
  </g>
  <!-- ears -->
  <circle cx="74" cy="100" r="17" fill="#8A5A34"/>
  <circle cx="74" cy="100" r="8" fill="#6B4526"/>
  <circle cx="166" cy="100" r="17" fill="#8A5A34"/>
  <circle cx="166" cy="100" r="8" fill="#6B4526"/>
  <!-- head -->
  <ellipse cx="120" cy="140" rx="64" ry="58" fill="#8A5A34"/>
  <!-- muzzle -->
  <ellipse cx="120" cy="164" rx="40" ry="31" fill="#CFA878"/>
  <!-- eyes -->
  <circle cx="96" cy="124" r="10" fill="#FFFFFF"/>
  <circle cx="144" cy="124" r="10" fill="#FFFFFF"/>
  <circle cx="98" cy="126" r="5" fill="#2F2018"/>
  <circle cx="146" cy="126" r="5" fill="#2F2018"/>
  <circle cx="100" cy="124" r="1.6" fill="#FFFFFF"/>
  <circle cx="148" cy="124" r="1.6" fill="#FFFFFF"/>
  <!-- nose -->
  <ellipse cx="120" cy="148" rx="11" ry="8" fill="#2F2018"/>
  <!-- teeth -->
  <rect x="111" y="158" width="8.5" height="24" rx="3" fill="#FFFFFF"/>
  <rect x="120.5" y="158" width="8.5" height="24" rx="3" fill="#FFFFFF"/>
  <!-- hard hat -->
  <ellipse cx="120" cy="94" rx="68" ry="16" fill="#F2B705"/>
  <path d="M60 94c0-50 30-58 60-58s60 8 60 58z" fill="#F6C021"/>
  <rect x="116" y="42" width="8" height="48" rx="4" fill="#E0A203"/>
  <path d="M120 36c-26 0-49 7-56 40 14-14 33-20 56-20s42 6 56 20c-7-33-30-40-56-40z" fill="#FFD23F"/>
  <!-- beer mug -->
  <g>
    <rect x="158" y="158" width="50" height="58" rx="8" fill="#EFA53A"/>
    <rect x="158" y="158" width="50" height="20" rx="8" fill="#F6E7C8"/>
    <ellipse cx="170" cy="158" rx="11" ry="9" fill="#FFFFFF"/>
    <ellipse cx="188" cy="155" rx="12" ry="10" fill="#FFFFFF"/>
    <ellipse cx="202" cy="158" rx="9" ry="8" fill="#FFFFFF"/>
    <path d="M208 170h6a12 12 0 0 1 0 24h-6v-9h6a3 3 0 0 0 0-6h-6z" fill="#EFA53A"/>
    <rect x="166" y="184" width="4" height="26" rx="2" fill="#E08C1E"/>
    <rect x="178" y="184" width="4" height="26" rx="2" fill="#E08C1E"/>
    <rect x="190" y="184" width="4" height="26" rx="2" fill="#E08C1E"/>
  </g>
</svg>
