<svg xmlns="http://www.w3.org/2000/svg" viewBox="0 0 1024 1024">
  <rect x="362" y="320" width="300" height="380" fill="#F5C400"/>
  <polygon points="362,700 662,700 512,880" fill="#E8C9A0"/>
  <polygon points="455.3333333333333,812 568.6666666666666,812 512,880" fill="#3A3A3A"/>
  <rect x="407" y="353" width="10" height="347" fill="#D9AD00"/>
  <rect x="607" y="353" width="10" height="347" fill="#D9AD00"/>
  <rect x="354" y="268" width="316" height="77" rx="34" fill="#D9D2C0" stroke="#D9D2C0" stroke-width="14" stroke-linejoin="round"/>
  <circle cx="417" cy="262" r="66" fill="#D9D2C0" stroke="#D9D2C0" stroke-width="14" stroke-linejoin="round"/>
  <circle cx="512" cy="238" r="80" fill="#D9D2C0" stroke="#D9D2C0" stroke-width="14" stroke-linejoin="round"/>
  <circle cx="607" cy="264" r="62" fill="#D9D2C0" stroke="#D9D2C0" stroke-width="14" stroke-linejoin="round"/>
  <rect x="354" y="268" width="316" height="77" rx="34" fill="#FFFFFF"/>
  <circle cx="417" cy="262" r="66" fill="#FFFFFF"/>
  <circle cx="512" cy="238" r="80" fill="#FFFFFF"/>
  <circle cx="607" cy="264" r="62" fill="#FFFFFF"/>
  <circle cx="452" cy="445" r="24" fill="#1A1A1A"/>
  <circle cx="444.32" cy="436.6" r="7" fill="#FFFFFF"/>
  <circle cx="572" cy="445" r="24" fill="#1A1A1A"/>
  <circle cx="564.32" cy="436.6" r="7" fill="#FFFFFF"/>
  <path d="M 466 515 Q 512 549 558 515" fill="none" stroke="#1A1A1A" stroke-width="16" stroke-linecap="round"/>
</svg>
