<svg xmlns="http://www.w3.org/2000/svg" viewBox="0 0 1024 1024">
  <rect x="362" y="320" width="300" height="380" fill="#1A1A1A" stroke="#1A1A1A" stroke-width="24" stroke-linejoin="round" stroke-linecap="round"/>
  <polygon points="362,700 662,700 512,880" fill="#1A1A1A" stroke="#1A1A1A" stroke-width="24" stroke-linejoin="round" stroke-linecap="round"/>
  <polygon points="455.3333333333333,812 568.6666666666666,812 512,880" fill="#1A1A1A" stroke="#1A1A1A" stroke-width="24" stroke-linejoin="round" stroke-linecap="round"/>
  <rect x="354" y="262" width="316" height="83" rx="34" fill="#1A1A1A" stroke="#1A1A1A" stroke-width="24" stroke-linejoin="round" stroke-linecap="round"/>
  <circle cx="412" cy="254" r="70" fill="#1A1A1A" stroke="#1A1A1A" stroke-width="24" stroke-linejoin="round" stroke-linecap="round"/>
  <circle cx="512" cy="228" r="84" fill="#1A1A1A" stroke="#1A1A1A" stroke-width="24" stroke-linejoin="round" stroke-linecap="round"/>
  <circle cx="610" cy="258" r="64" fill="#1A1A1A" stroke="#1A1A1A" stroke-width="24" stroke-linejoin="round" stroke-linecap="round"/>
  <rect x="362" y="320" width="300" height="380" fill="#F5C400"/>
  <polygon points="362,700 662,700 512,880" fill="#E8C9A0"/>
  <polygon points="455.3333333333333,812 568.6666666666666,812 512,880" fill="#3A3A3A"/>
  <rect x="354" y="262" width="316" height="83" rx="34" fill="#FFFFFF"/>
  <circle cx="412" cy="254" r="70" fill="#FFFFFF"/>
  <circle cx="512" cy="228" r="84" fill="#FFFFFF"/>
  <circle cx="610" cy="258" r="64" fill="#FFFFFF"/>
  <circle cx="450" cy="442" r="25" fill="#1A1A1A"/>
  <circle cx="442" cy="433.25" r="7" fill="#FFFFFF"/>
  <circle cx="574" cy="442" r="25" fill="#1A1A1A"/>
  <circle cx="566" cy="433.25" r="7" fill="#FFFFFF"/>
  <path d="M 450 500 A 62 35.96 0 0 0 574 500 Z" fill="#1A1A1A"/>
</svg>
