<svg xmlns="http://www.w3.org/2000/svg" viewBox="0 0 1024 1024">
  <rect x="282" y="300" width="460" height="345" fill="#F5C400"/>
  <polygon points="282,645 742,645 512,845" fill="#E8C9A0"/>
  <polygon points="425.75,770 598.25,770 512,845" fill="#3A3A3A"/>
  <rect x="377" y="350" width="10" height="295" fill="#D9AD00"/>
  <rect x="637" y="350" width="10" height="295" fill="#D9AD00"/>
  <rect x="274" y="252" width="476" height="90" rx="34" fill="#D9D2C0" stroke="#D9D2C0" stroke-width="14" stroke-linejoin="round"/>
  <circle cx="362" cy="248" r="80" fill="#D9D2C0" stroke="#D9D2C0" stroke-width="14" stroke-linejoin="round"/>
  <circle cx="512" cy="224" r="95" fill="#D9D2C0" stroke="#D9D2C0" stroke-width="14" stroke-linejoin="round"/>
  <circle cx="660" cy="250" r="76" fill="#D9D2C0" stroke="#D9D2C0" stroke-width="14" stroke-linejoin="round"/>
  <rect x="274" y="252" width="476" height="90" rx="34" fill="#FFFFFF"/>
  <circle cx="362" cy="248" r="80" fill="#FFFFFF"/>
  <circle cx="512" cy="224" r="95" fill="#FFFFFF"/>
  <circle cx="660" cy="250" r="76" fill="#FFFFFF"/>
  <path d="M 394 445.4 Q 428 422 462 445.4" fill="none" stroke="#1A1A1A" stroke-width="16" stroke-linecap="round"/>
  <path d="M 562 445.4 Q 596 422 630 445.4" fill="none" stroke="#1A1A1A" stroke-width="16" stroke-linecap="round"/>
  <path d="M 486 518 Q 512 532 538 518" fill="none" stroke="#1A1A1A" stroke-width="16" stroke-linecap="round"/>
</svg>
