<svg xmlns="http://www.w3.org/2000/svg" viewBox="0 0 1024 1024">
  <g transform="rotate(-8 512 540)">
  <rect x="282" y="300" width="460" height="345" fill="#F5C400"/>
  <polygon points="282,645 742,645 512,845" fill="#E8C9A0"/>
  <polygon points="425.75,770 598.25,770 512,845" fill="#3A3A3A"/>
  <rect x="246" y="238" width="532" height="94" rx="34" fill="#D9D2C0" stroke="#D9D2C0" stroke-width="14" stroke-linejoin="round"/>
  <circle cx="340" cy="230" r="98" fill="#D9D2C0" stroke="#D9D2C0" stroke-width="14" stroke-linejoin="round"/>
  <circle cx="506" cy="196" r="124" fill="#D9D2C0" stroke="#D9D2C0" stroke-width="14" stroke-linejoin="round"/>
  <circle cx="676" cy="236" r="94" fill="#D9D2C0" stroke="#D9D2C0" stroke-width="14" stroke-linejoin="round"/>
  <rect x="317" y="316" width="50" height="132" rx="25" fill="#D9D2C0" stroke="#D9D2C0" stroke-width="14" stroke-linejoin="round"/>
  <rect x="246" y="238" width="532" height="94" rx="34" fill="#FFFFFF"/>
  <circle cx="340" cy="230" r="98" fill="#FFFFFF"/>
  <circle cx="506" cy="196" r="124" fill="#FFFFFF"/>
  <circle cx="676" cy="236" r="94" fill="#FFFFFF"/>
  <rect x="317" y="316" width="50" height="132" rx="25" fill="#FFFFFF"/>
  <path d="M 396 438 Q 428 412 460 438" fill="none" stroke="#1A1A1A" stroke-width="18" stroke-linecap="round"/>
  <circle cx="596" cy="432" r="32" fill="#1A1A1A"/>
  <circle cx="585.76" cy="420.8" r="8.64" fill="#FFFFFF"/>
  <path d="M 462 526 Q 512 556 570 510" fill="none" stroke="#1A1A1A" stroke-width="18" stroke-linecap="round"/>
  </g>
</svg>
