<svg xmlns="http://www.w3.org/2000/svg" viewBox="0 0 1024 1024">
  <rect x="282" y="300" width="460" height="345" fill="#F5C400"/>
  <polygon points="282,645 742,645 512,845" fill="#E8C9A0"/>
  <polygon points="425.75,770 598.25,770 512,845" fill="#3A3A3A"/>
  <rect x="698" y="338" width="44" height="307" fill="#E9B800"/>
  <rect x="246" y="238" width="532" height="94" rx="34" fill="#D9D2C0" stroke="#D9D2C0" stroke-width="14" stroke-linejoin="round"/>
  <circle cx="340" cy="230" r="98" fill="#D9D2C0" stroke="#D9D2C0" stroke-width="14" stroke-linejoin="round"/>
  <circle cx="506" cy="196" r="124" fill="#D9D2C0" stroke="#D9D2C0" stroke-width="14" stroke-linejoin="round"/>
  <circle cx="676" cy="236" r="94" fill="#D9D2C0" stroke="#D9D2C0" stroke-width="14" stroke-linejoin="round"/>
  <circle cx="250" cy="98" r="22" fill="#D9D2C0" stroke="#D9D2C0" stroke-width="14" stroke-linejoin="round"/>
  <circle cx="730" cy="72" r="30" fill="#D9D2C0" stroke="#D9D2C0" stroke-width="14" stroke-linejoin="round"/>
  <rect x="246" y="238" width="532" height="94" rx="34" fill="#FFFFFF"/>
  <circle cx="340" cy="230" r="98" fill="#FFFFFF"/>
  <circle cx="506" cy="196" r="124" fill="#FFFFFF"/>
  <circle cx="676" cy="236" r="94" fill="#FFFFFF"/>
  <circle cx="250" cy="98" r="22" fill="#FFFFFF"/>
  <circle cx="730" cy="72" r="30" fill="#FFFFFF"/>
  <path d="M 394 435.2 Q 428 404 462 435.2" fill="none" stroke="#1A1A1A" stroke-width="18" stroke-linecap="round"/>
  <path d="M 562 435.2 Q 596 404 630 435.2" fill="none" stroke="#1A1A1A" stroke-width="18" stroke-linecap="round"/>
  <ellipse cx="362" cy="468" rx="34" ry="20" fill="#F49E7E"/>
  <ellipse cx="662" cy="468" rx="34" ry="20" fill="#F49E7E"/>
  <path d="M 438 512 A 74 42.919999999999995 0 0 0 586 512 Z" fill="#1A1A1A"/>
</svg>
