<svg xmlns="http://www.w3.org/2000/svg" viewBox="0 0 1024 1024">
  <path d="M 282 300 H 742 V 754 Q 742 810 686 810 H 338 Q 282 810 282 754 Z" fill="#F5C400"/>
  <rect x="274" y="252" width="476" height="90" rx="34" fill="#D9D2C0" stroke="#D9D2C0" stroke-width="14" stroke-linejoin="round"/>
  <circle cx="362" cy="248" r="80" fill="#D9D2C0" stroke="#D9D2C0" stroke-width="14" stroke-linejoin="round"/>
  <circle cx="512" cy="224" r="95" fill="#D9D2C0" stroke="#D9D2C0" stroke-width="14" stroke-linejoin="round"/>
  <circle cx="660" cy="250" r="76" fill="#D9D2C0" stroke="#D9D2C0" stroke-width="14" stroke-linejoin="round"/>
  <rect x="274" y="252" width="476" height="90" rx="34" fill="#FFFFFF"/>
  <circle cx="362" cy="248" r="80" fill="#FFFFFF"/>
  <circle cx="512" cy="224" r="95" fill="#FFFFFF"/>
  <circle cx="660" cy="250" r="76" fill="#FFFFFF"/>
  <path d="M 398 441.6 Q 430 413 462 441.6" fill="none" stroke="#1A1A1A" stroke-width="17" stroke-linecap="round"/>
  <path d="M 562 441.6 Q 594 413 626 441.6" fill="none" stroke="#1A1A1A" stroke-width="17" stroke-linecap="round"/>
  <ellipse cx="366" cy="479" rx="34" ry="20" fill="#F49E7E"/>
  <ellipse cx="658" cy="479" rx="34" ry="20" fill="#F49E7E"/>
  <path d="M 482 520 Q 512 536 542 520" fill="none" stroke="#1A1A1A" stroke-width="17" stroke-linecap="round"/>
</svg>
