<svg xmlns="http://www.w3.org/2000/svg" viewBox="0 0 1024 1024">
  <g transform="rotate(14 512 540)">
  <rect x="362" y="320" width="300" height="380" fill="#F5C400"/>
  <polygon points="362,700 662,700 512,880" fill="#E8C9A0"/>
  <polygon points="455.3333333333333,812 568.6666666666666,812 512,880" fill="#3A3A3A"/>
  <rect x="407" y="353" width="10" height="347" fill="#D9AD00"/>
  <rect x="607" y="353" width="10" height="347" fill="#D9AD00"/>
  <rect x="354" y="268" width="316" height="77" rx="34" fill="#D9D2C0" stroke="#D9D2C0" stroke-width="14" stroke-linejoin="round"/>
  <circle cx="417" cy="262" r="66" fill="#D9D2C0" stroke="#D9D2C0" stroke-width="14" stroke-linejoin="round"/>
  <circle cx="512" cy="238" r="80" fill="#D9D2C0" stroke="#D9D2C0" stroke-width="14" stroke-linejoin="round"/>
  <circle cx="607" cy="264" r="62" fill="#D9D2C0" stroke="#D9D2C0" stroke-width="14" stroke-linejoin="round"/>
  <rect x="354" y="268" width="316" height="77" rx="34" fill="#FFFFFF"/>
  <circle cx="417" cy="262" r="66" fill="#FFFFFF"/>
  <circle cx="512" cy="238" r="80" fill="#FFFFFF"/>
  <circle cx="607" cy="264" r="62" fill="#FFFFFF"/>
  <circle cx="462" cy="450" r="23" fill="#1A1A1A"/>
  <circle cx="454.64" cy="441.95" r="9" fill="#FFFFFF"/>
  <circle cx="578" cy="450" r="23" fill="#1A1A1A"/>
  <circle cx="570.64" cy="441.95" r="9" fill="#FFFFFF"/>
  <path d="M 490 515 Q 520 531 550 515" fill="none" stroke="#1A1A1A" stroke-width="15" stroke-linecap="round"/>
  </g>
</svg>
